<svg width="175" height="42" viewBox="0 0 175 42" fill="none" xmlns="http://www.w3.org/2000/svg">
<path d="M10.32 18.9751L9.264 33.1831V33.3751C9.264 33.9831 9.488 34.3831 9.936 34.5751L12.912 35.8231L12.432 40.1911H0.48L0 35.9191L2.208 34.5751L4.944 16.0471C4.976 15.8231 4.992 15.5511 4.992 15.2311C4.992 14.8471 4.896 14.5591 4.704 14.3671C4.544 14.1751 4.224 13.9351 3.744 13.6471L1.536 12.3991L1.824 7.83908H15.6L22.464 30.2071L29.28 7.83908H42.144L42.336 12.8791L39.264 13.6471L41.856 32.4631C41.952 33.1031 42.08 33.5991 42.24 33.9511C42.432 34.3031 42.848 34.8791 43.488 35.6791L44.496 36.9751L44.208 40.1911H29.904L29.472 35.7751L33.408 34.7671L31.776 18.6871L25.632 40.3831L17.424 41.1031L10.32 18.9751Z" fill="#FF9300"/>
<path d="M46.3159 35.9191L47.8039 35.0071L59.0359 7.79108L67.1959 7.07108L76.7959 32.9911C77.1159 33.8231 77.3399 34.3671 77.4679 34.6231C77.5959 34.8791 77.8359 35.2311 78.1879 35.6791L79.0519 36.7831L78.7639 40.1911H65.2759L64.7959 35.6311L68.2039 34.7671L66.6679 29.9191L56.9239 30.0631L55.8679 33.0871C55.7719 33.3751 55.7239 33.6151 55.7239 33.8071C55.7239 34.0311 55.7559 34.2071 55.8199 34.3351C55.9159 34.4311 56.0599 34.5111 56.2519 34.5751L59.5639 35.9671L59.0839 40.1911H46.5079L46.3159 35.9191ZM62.0119 15.2791L58.8439 24.4951L65.0359 24.7831L62.0119 15.2791Z" fill="#FF9300"/>
<path d="M81.027 35.2951L84.531 34.3351V16.0471C84.531 15.2151 84.467 14.6711 84.339 14.4151C84.211 14.1271 83.875 13.8711 83.331 13.6471L80.835 12.2551L81.123 8.36708C83.555 7.98308 85.859 7.71108 88.035 7.55108C90.211 7.35908 92.547 7.26308 95.043 7.26308C98.499 7.26308 101.267 7.63108 103.347 8.36708C105.459 9.10308 106.995 10.2551 107.955 11.8231C108.947 13.3911 109.443 15.4711 109.443 18.0631C109.443 20.9778 108.528 23.3508 106.698 25.1819C106.418 25.4616 106.117 25.7287 105.795 25.9831C103.395 27.9031 100.099 28.8631 95.907 28.8631L93.267 28.7671V32.4151C93.267 33.1831 93.315 33.6791 93.411 33.9031C93.539 34.1271 93.827 34.3511 94.275 34.5751L97.203 36.3031L97.011 40.1911H81.267L81.027 35.2951ZM96.339 23.5351C98.067 23.5351 99.331 23.3591 100.131 23.0071C100.483 21.4391 100.659 19.7911 100.659 18.0631C100.659 16.1751 100.291 14.8311 99.555 14.0311C98.851 13.2311 97.699 12.8311 96.099 12.8311C95.555 12.8311 94.611 12.8951 93.267 13.0231V23.2471C94.131 23.4391 95.155 23.5351 96.339 23.5351Z" fill="#FF9300"/>
<path d="M111.625 35.1511L114.649 34.3351V15.9511C114.649 15.1191 114.585 14.5751 114.457 14.3191C114.361 14.0311 114.057 13.7751 113.545 13.5511L111.529 12.3991L111.673 7.83908H126.649L126.889 12.7351L123.337 13.6951V34.4311L129.385 34.2871C129.385 34.2871 130.211 33.3452 131.119 32.3087C131.322 32.0772 131.529 31.841 131.731 31.6095C132.64 30.573 133.465 29.6311 133.465 29.6311L137.161 29.8231C137.097 32.5111 136.873 35.9671 136.489 40.1911H111.865L111.625 35.1511Z" fill="#FF9300"/>
<path d="M139.656 35.2951L143.16 34.3351V15.9511C143.16 15.1191 143.096 14.5751 142.968 14.3191C142.84 14.0311 142.504 13.7751 141.96 13.5511L139.56 12.1591L139.704 7.83908H165.768C165.992 11.1991 166.104 14.4791 166.104 17.6791L162.552 17.9191L159.144 13.6951L151.896 13.5031V21.3271L162.12 20.4631V27.8551L151.896 26.7511V34.4791L159.864 34.3351C159.864 34.3351 160.592 33.5036 161.401 32.5784C161.607 32.3435 161.818 32.1026 162.023 31.8677C162.833 30.9426 163.56 30.1111 163.56 30.1111L167.112 30.3511C166.984 33.7111 166.744 36.9911 166.392 40.1911H139.896L139.656 35.2951Z" fill="#FF9300"/>
<path d="M173.175 10.608C173.175 7.40801 173.063 4.12801 172.839 0.768005L165.768 7.83907C165.992 11.1991 166.104 14.4791 166.104 17.6791L173.175 10.608Z" fill="#FF9300"/>
<path d="M169.623 10.848L173.175 10.608L166.104 17.6791L162.552 17.9191L169.623 10.848Z" fill="#FF9300"/>
<path d="M166.215 6.62399L169.623 10.848L162.552 17.9191L159.144 13.6951L166.215 6.62399Z" fill="#FF9300"/>
<path d="M172.839 0.768005H146.775L139.704 7.83907H165.768L172.839 0.768005Z" fill="#FF9300"/>
<path d="M158.967 6.43201L166.215 6.62401L159.144 13.6951L151.896 13.5031L158.967 6.43201Z" fill="#FF9300"/>
<path d="M169.191 20.784V13.392L162.12 20.4631V27.8551L169.191 20.784Z" fill="#FF9300"/>
<path d="M169.191 13.392L158.967 14.256L151.896 21.3271L162.12 20.4631L169.191 13.392Z" fill="#FF9300"/>
<path d="M174.183 23.28L170.631 23.04L163.56 30.1111L167.112 30.3511L174.183 23.28Z" fill="#FF9300"/>
<path d="M158.967 14.256V6.43201L151.896 13.5031V21.3271L158.967 14.256Z" fill="#FF9300"/>
<path d="M170.631 23.04L169.094 24.7967L162.023 31.8677L163.56 30.1111L170.631 23.04Z" fill="#FF9300"/>
<path d="M173.463 33.12C173.815 29.92 174.055 26.64 174.183 23.28L167.112 30.3511C166.984 33.7111 166.744 36.9911 166.392 40.1911L173.463 33.12Z" fill="#FF9300"/>
<path d="M158.967 19.68L169.191 20.784L162.12 27.8551L151.896 26.7511L158.967 19.68Z" fill="#FF9300"/>
<path d="M146.775 0.768005L146.631 5.088L139.56 12.1591L139.704 7.83907L146.775 0.768005Z" fill="#FF9300"/>
<path d="M169.094 24.7967L168.473 25.5073L161.401 32.5784L162.023 31.8677L169.094 24.7967Z" fill="#FF9300"/>
<path d="M149.031 6.48001C149.575 6.70401 149.911 6.96001 150.039 7.24801L142.968 14.3191C142.84 14.0311 142.504 13.7751 141.96 13.5511L149.031 6.48001Z" fill="#FF9300"/>
<path d="M150.039 7.24799C150.167 7.50399 150.231 8.04799 150.231 8.87999L143.16 15.9511C143.16 15.1191 143.096 14.5751 142.968 14.3191L150.039 7.24799Z" fill="#FF9300"/>
<path d="M146.631 5.08801L149.031 6.48001L141.96 13.5511L139.56 12.1591L146.631 5.08801Z" fill="#FF9300"/>
<path d="M168.473 25.5073L166.935 27.264L159.864 34.3351L161.401 32.5784L168.473 25.5073Z" fill="#FF9300"/>
<path d="M166.935 27.264L158.967 27.408L151.896 34.4791L159.864 34.3351L166.935 27.264Z" fill="#FF9300"/>
<path d="M158.967 27.408V19.68L151.896 26.7511V34.4791L158.967 27.408Z" fill="#FF9300"/>
<path d="M150.231 8.88V27.264L143.16 34.3351V15.9511L150.231 8.88Z" fill="#FF9300"/>
<path d="M133.96 5.66401L133.72 0.768005L126.649 7.83907L126.889 12.7351L133.96 5.66401Z" fill="#FF9300"/>
<path d="M146.967 33.12H173.463L166.392 40.1911H139.896L146.967 33.12Z" fill="#FF9300"/>
<path d="M130.408 6.624L133.96 5.664L126.889 12.7351L123.337 13.6951L130.408 6.624Z" fill="#FF9300"/>
<path d="M133.72 0.768005H118.744L111.673 7.83907H126.649L133.72 0.768005Z" fill="#FF9300"/>
<path d="M150.231 27.264L146.727 28.224L139.656 35.2951L143.16 34.3351L150.231 27.264Z" fill="#FF9300"/>
<path d="M144.232 22.752L140.536 22.56L133.465 29.6311L137.161 29.8231L144.232 22.752Z" fill="#FF9300"/>
<path d="M146.727 28.224L146.967 33.12L139.896 40.1911L139.656 35.2951L146.727 28.224Z" fill="#FF9300"/>
<path d="M140.536 22.56L138.803 24.5384L131.731 31.6095L133.465 29.6311L140.536 22.56Z" fill="#FF9300"/>
<path d="M143.56 33.12C143.944 28.896 144.168 25.44 144.232 22.752L137.161 29.8231C137.097 32.5111 136.873 35.9671 136.489 40.1911L143.56 33.12Z" fill="#FF9300"/>
<path d="M118.744 0.768005L118.6 5.328L111.529 12.3991L111.673 7.83907L118.744 0.768005Z" fill="#FF9300"/>
<path d="M120.616 6.48001C121.128 6.70401 121.432 6.96001 121.528 7.24801L114.457 14.3191C114.361 14.0311 114.057 13.7751 113.545 13.5511L120.616 6.48001Z" fill="#FF9300"/>
<path d="M118.6 5.328L120.616 6.48001L113.545 13.5511L111.529 12.3991L118.6 5.328Z" fill="#FF9300"/>
<path d="M138.803 24.5384L138.19 25.2376L131.119 32.3087L131.731 31.6095L138.803 24.5384Z" fill="#FF9300"/>
<path d="M121.528 7.24799C121.656 7.50399 121.72 8.04799 121.72 8.87999L114.649 15.9511C114.649 15.1191 114.585 14.5751 114.457 14.3191L121.528 7.24799Z" fill="#FF9300"/>
<path d="M130.408 27.36V6.62399L123.337 13.6951V34.4311L130.408 27.36Z" fill="#FF9300"/>
<path d="M138.19 25.2376L136.456 27.216L129.385 34.2871L131.119 32.3086L138.19 25.2376Z" fill="#FF9300"/>
<path d="M115.026 4.75199C114.066 3.18399 112.53 2.03199 110.418 1.29599L103.347 8.36706C105.459 9.10306 106.995 10.2551 107.955 11.8231L115.026 4.75199Z" fill="#FF9300"/>
<path d="M116.514 10.992C116.514 8.40001 116.018 6.32001 115.026 4.75201L107.955 11.8231C108.947 13.3911 109.443 15.4711 109.443 18.0631L116.514 10.992Z" fill="#FF9300"/>
<path d="M136.456 27.216L130.408 27.36L123.337 34.4311L129.385 34.2871L136.456 27.216Z" fill="#FF9300"/>
<path d="M110.418 1.29599C108.338 0.559986 105.57 0.191986 102.114 0.191986L95.043 7.26305C98.499 7.26305 101.267 7.63105 103.347 8.36705L110.418 1.29599Z" fill="#FF9300"/>
<path d="M121.72 8.88V27.264L114.649 34.3351V15.9511L121.72 8.88Z" fill="#FF9300"/>
<path d="M113.769 18.1108C115.599 16.2797 116.514 13.9068 116.514 10.992L109.443 18.0631C109.443 20.9778 108.528 23.3508 106.698 25.1819L113.769 18.1108Z" fill="#FF9300"/>
<path d="M103.17 5.76001C104.77 5.76001 105.922 6.16001 106.626 6.96001L99.555 14.0311C98.851 13.2311 97.699 12.8311 96.099 12.8311L103.17 5.76001Z" fill="#FF9300"/>
<path d="M102.114 0.191986C99.6181 0.191986 97.2821 0.287987 95.1061 0.479988L88.035 7.55106C90.211 7.35905 92.547 7.26305 95.043 7.26305L102.114 0.191986Z" fill="#FF9300"/>
<path d="M106.626 6.95999C107.362 7.75999 107.73 9.10399 107.73 10.992L100.659 18.0631C100.659 16.1751 100.291 14.8311 99.555 14.0311L106.626 6.95999Z" fill="#FF9300"/>
<path d="M118.936 33.12H143.56L136.489 40.1911H111.865L118.936 33.12Z" fill="#FF9300"/>
<path d="M100.338 5.95201C101.682 5.82401 102.626 5.76001 103.17 5.76001L96.099 12.8311C95.555 12.8311 94.611 12.8951 93.267 13.0231L100.338 5.95201Z" fill="#FF9300"/>
<path d="M112.866 18.912C113.187 18.6587 113.487 18.3928 113.765 18.1144L106.698 25.1818C106.418 25.4616 106.117 25.7286 105.795 25.9831L112.866 18.912Z" fill="#FF9300"/>
<path d="M107.73 10.992C107.73 12.72 107.554 14.368 107.202 15.936L100.131 23.0071C100.483 21.4391 100.659 19.7911 100.659 18.0631L107.73 10.992Z" fill="#FF9300"/>
<path d="M121.72 27.264L118.696 28.08L111.625 35.1511L114.649 34.3351L121.72 27.264Z" fill="#FF9300"/>
<path d="M95.1061 0.480011C92.9301 0.640011 90.6261 0.91201 88.1941 1.29601L81.123 8.36708C83.555 7.98308 85.859 7.71108 88.035 7.55108L95.1061 0.480011Z" fill="#FF9300"/>
<path d="M100.338 16.176V5.952L93.267 13.0231V23.2471L100.338 16.176Z" fill="#FF9300"/>
<path d="M107.202 15.936C106.402 16.288 105.138 16.464 103.41 16.464L96.339 23.5351C98.067 23.5351 99.331 23.3591 100.131 23.0071L107.202 15.936Z" fill="#FF9300"/>
<path d="M118.696 28.08L118.936 33.12L111.865 40.1911L111.625 35.1511L118.696 28.08Z" fill="#FF9300"/>
<path d="M102.978 21.792C107.17 21.792 110.466 20.832 112.866 18.912L105.795 25.9831C103.395 27.9031 100.099 28.8631 95.907 28.8631L102.978 21.792Z" fill="#FF9300"/>
<path d="M103.41 16.464C102.226 16.464 101.202 16.368 100.338 16.176L93.267 23.2471C94.131 23.4391 95.155 23.5351 96.339 23.5351L103.41 16.464Z" fill="#FF9300"/>
<path d="M88.1941 1.29599L87.9061 5.18399L80.835 12.2551L81.123 8.36706L88.1941 1.29599Z" fill="#FF9300"/>
<path d="M90.4021 6.57599C90.9461 6.79999 91.2821 7.05599 91.4101 7.34399L84.339 14.4151C84.211 14.1271 83.875 13.8711 83.331 13.6471L90.4021 6.57599Z" fill="#FF9300"/>
<path d="M91.4101 7.34399C91.5381 7.59999 91.6021 8.14399 91.6021 8.97599L84.531 16.0471C84.531 15.2151 84.467 14.6711 84.339 14.4151L91.4101 7.34399Z" fill="#FF9300"/>
<path d="M87.9061 5.18399L90.4021 6.57599L83.331 13.6471L80.835 12.2551L87.9061 5.18399Z" fill="#FF9300"/>
<path d="M100.338 21.696L102.978 21.792L95.907 28.8631L93.267 28.7671L100.338 21.696Z" fill="#FF9300"/>
<path d="M100.338 25.344V21.696L93.267 28.7671V32.4151L100.338 25.344Z" fill="#FF9300"/>
<path d="M104.274 29.232L101.346 27.504L94.275 34.5751L97.203 36.3031L104.274 29.232Z" fill="#FF9300"/>
<path d="M100.482 26.832C100.386 26.608 100.338 26.112 100.338 25.344L93.267 32.4151C93.267 33.1831 93.315 33.6791 93.411 33.9031L100.482 26.832Z" fill="#FF9300"/>
<path d="M101.346 27.504C100.898 27.28 100.61 27.056 100.482 26.832L93.411 33.9031C93.539 34.1271 93.827 34.3511 94.275 34.5751L101.346 27.504Z" fill="#FF9300"/>
<path d="M91.6021 8.97601V27.264L84.531 34.3351V16.0471L91.6021 8.97601Z" fill="#FF9300"/>
<path d="M104.082 33.12L104.274 29.232L97.203 36.3031L97.011 40.1911L104.082 33.12Z" fill="#FF9300"/>
<path d="M74.2669 0L66.1069 0.720002L59.0359 7.79107L67.1959 7.07107L74.2669 0Z" fill="#FF9300"/>
<path d="M83.8669 25.92L74.2669 0L67.1959 7.07107L76.7959 32.9911L83.8669 25.92Z" fill="#FF9300"/>
<path d="M88.3381 33.12H104.082L97.011 40.1911H81.267L88.3381 33.12Z" fill="#FF9300"/>
<path d="M91.6021 27.264L88.0981 28.224L81.027 35.2951L84.531 34.3351L91.6021 27.264Z" fill="#FF9300"/>
<path d="M69.0829 8.20801L72.1069 17.712L65.0359 24.7831L62.0119 15.2791L69.0829 8.20801Z" fill="#FF9300"/>
<path d="M88.0981 28.224L88.3381 33.12L81.267 40.1911L81.027 35.2951L88.0981 28.224Z" fill="#FF9300"/>
<path d="M84.5389 27.552C84.4109 27.296 84.1869 26.752 83.8669 25.92L76.7959 32.9911C77.1159 33.8231 77.3399 34.3671 77.4679 34.6231L84.5389 27.552Z" fill="#FF9300"/>
<path d="M85.2589 28.608C84.9069 28.16 84.6669 27.808 84.5389 27.552L77.4679 34.6231C77.5959 34.8791 77.8359 35.2311 78.1879 35.6791L85.2589 28.608Z" fill="#FF9300"/>
<path d="M86.1229 29.712L85.2589 28.608L78.1879 35.6791L79.0519 36.7831L86.1229 29.712Z" fill="#FF9300"/>
<path d="M65.9149 17.424L69.0829 8.20801L62.0119 15.2791L58.8439 24.4951L65.9149 17.424Z" fill="#FF9300"/>
<path d="M85.8349 33.12L86.1229 29.712L79.0519 36.7831L78.7639 40.1911L85.8349 33.12Z" fill="#FF9300"/>
<path d="M72.1069 17.712L65.9149 17.424L58.8439 24.4951L65.0359 24.7831L72.1069 17.712Z" fill="#FF9300"/>
<path d="M73.7389 22.848L75.2749 27.696L68.2039 34.7671L66.6679 29.9191L73.7389 22.848Z" fill="#FF9300"/>
<path d="M66.1069 0.720001L54.8749 27.936L47.8039 35.0071L59.0359 7.79107L66.1069 0.720001Z" fill="#FF9300"/>
<path d="M49.4071 5.80801L49.2151 0.768005L42.144 7.83907L42.336 12.8791L49.4071 5.80801Z" fill="#FF9300"/>
<path d="M72.3469 33.12H85.8349L78.7639 40.1911H65.2759L72.3469 33.12Z" fill="#FF9300"/>
<path d="M63.9949 22.992L73.7389 22.848L66.6679 29.9191L56.9239 30.0631L63.9949 22.992Z" fill="#FF9300"/>
<path d="M75.2749 27.696L71.8669 28.56L64.7959 35.6311L68.2039 34.7671L75.2749 27.696Z" fill="#FF9300"/>
<path d="M49.2151 0.768005H36.3511L29.28 7.83907H42.144L49.2151 0.768005Z" fill="#FF9300"/>
<path d="M46.3351 6.57601L49.4071 5.80801L42.336 12.8791L39.264 13.6471L46.3351 6.57601Z" fill="#FF9300"/>
<path d="M71.8669 28.56L72.3469 33.12L65.2759 40.1911L64.7959 35.6311L71.8669 28.56Z" fill="#FF9300"/>
<path d="M62.9389 26.016L63.9949 22.992L56.9239 30.0631L55.8679 33.0871L62.9389 26.016Z" fill="#FF9300"/>
<path d="M66.6349 28.896L63.3229 27.504L56.2519 34.5751L59.5639 35.9671L66.6349 28.896Z" fill="#FF9300"/>
<path d="M62.7949 26.736C62.7949 26.544 62.8429 26.304 62.9389 26.016L55.8679 33.0871C55.7719 33.3751 55.7239 33.6151 55.7239 33.8071L62.7949 26.736Z" fill="#FF9300"/>
<path d="M62.8909 27.264C62.8269 27.136 62.7949 26.96 62.7949 26.736L55.7239 33.8071C55.7239 34.0311 55.7559 34.2071 55.8199 34.3351L62.8909 27.264Z" fill="#FF9300"/>
<path d="M63.3229 27.504C63.1309 27.44 62.9869 27.36 62.8909 27.264L55.8199 34.3351C55.9159 34.4311 56.0599 34.5111 56.2519 34.5751L63.3229 27.504Z" fill="#FF9300"/>
<path d="M66.1549 33.12L66.6349 28.896L59.5639 35.9671L59.0839 40.1911L66.1549 33.12Z" fill="#FF9300"/>
<path d="M48.9271 25.392L46.3351 6.57599L39.264 13.6471L41.856 32.4631L48.9271 25.392Z" fill="#FF9300"/>
<path d="M53.5789 33.12H66.1549L59.0839 40.1911H46.5079L53.5789 33.12Z" fill="#FF9300"/>
<path d="M54.8749 27.936L53.3869 28.848L46.3159 35.9191L47.8039 35.0071L54.8749 27.936Z" fill="#FF9300"/>
<path d="M49.3111 26.88C49.1511 26.528 49.0231 26.032 48.9271 25.392L41.856 32.4631C41.952 33.1031 42.08 33.5991 42.24 33.9511L49.3111 26.88Z" fill="#FF9300"/>
<path d="M53.3869 28.848L53.5789 33.12L46.5079 40.1911L46.3159 35.9191L53.3869 28.848Z" fill="#FF9300"/>
<path d="M50.5591 28.608C49.9191 27.808 49.5031 27.232 49.3111 26.88L42.24 33.9511C42.432 34.3031 42.848 34.8791 43.488 35.6791L50.5591 28.608Z" fill="#FF9300"/>
<path d="M51.5671 29.904L50.5591 28.608L43.488 35.6791L44.496 36.9751L51.5671 29.904Z" fill="#FF9300"/>
<path d="M36.3511 0.768005L29.5351 23.136L22.464 30.2071L29.28 7.83907L36.3511 0.768005Z" fill="#FF9300"/>
<path d="M38.8471 11.616L40.4791 27.696L33.408 34.7671L31.776 18.6871L38.8471 11.616Z" fill="#FF9300"/>
<path d="M51.2791 33.12L51.5671 29.904L44.496 36.9751L44.208 40.1911L51.2791 33.12Z" fill="#FF9300"/>
<path d="M22.6711 0.768005H8.89507L1.824 7.83907H15.6L22.6711 0.768005Z" fill="#FF9300"/>
<path d="M29.5351 23.136L22.6711 0.768005L15.6 7.83907L22.464 30.2071L29.5351 23.136Z" fill="#FF9300"/>
<path d="M32.7031 33.312L38.8471 11.616L31.776 18.6871L25.632 40.3831L32.7031 33.312Z" fill="#FF9300"/>
<path d="M36.9751 33.12H51.2791L44.208 40.1911H29.904L36.9751 33.12Z" fill="#FF9300"/>
<path d="M40.4791 27.696L36.5431 28.704L29.472 35.7751L33.408 34.7671L40.4791 27.696Z" fill="#FF9300"/>
<path d="M36.5431 28.704L36.9751 33.12L29.904 40.1911L29.472 35.7751L36.5431 28.704Z" fill="#FF9300"/>
<path d="M8.89507 0.768005L8.60707 5.328L1.536 12.3991L1.824 7.83907L8.89507 0.768005Z" fill="#FF9300"/>
<path d="M10.8151 6.57599C11.2951 6.86399 11.6151 7.10399 11.7751 7.29599L4.704 14.3671C4.544 14.1751 4.224 13.9351 3.744 13.6471L10.8151 6.57599Z" fill="#FF9300"/>
<path d="M11.7751 7.29599C11.9671 7.48799 12.0631 7.77599 12.0631 8.15999L4.992 15.2311C4.992 14.8471 4.896 14.5591 4.704 14.3671L11.7751 7.29599Z" fill="#FF9300"/>
<path d="M8.60707 5.328L10.8151 6.576L3.744 13.6471L1.536 12.3991L8.60707 5.328Z" fill="#FF9300"/>
<path d="M12.0631 8.16C12.0631 8.48 12.0471 8.752 12.0151 8.976L4.944 16.0471C4.976 15.8231 4.992 15.5511 4.992 15.2311L12.0631 8.16Z" fill="#FF9300"/>
<path d="M17.3911 11.904L24.4951 34.032L17.424 41.1031L10.32 18.9751L17.3911 11.904Z" fill="#FF9300"/>
<path d="M16.3351 26.112L17.3911 11.904L10.32 18.9751L9.264 33.1831L16.3351 26.112Z" fill="#FF9300"/>
<path d="M24.4951 34.032L32.7031 33.312L25.632 40.3831L17.424 41.1031L24.4951 34.032Z" fill="#FF9300"/>
<path d="M12.0151 8.97601L9.27907 27.504L2.208 34.5751L4.944 16.0471L12.0151 8.97601Z" fill="#FF9300"/>
<path d="M19.9831 28.752L17.0071 27.504L9.936 34.5751L12.912 35.8231L19.9831 28.752Z" fill="#FF9300"/>
<path d="M16.3351 26.304V26.112L9.264 33.1831V33.3751L16.3351 26.304Z" fill="#FF9300"/>
<path d="M17.0071 27.504C16.5591 27.312 16.3351 26.912 16.3351 26.304L9.264 33.3751C9.264 33.9831 9.488 34.3831 9.936 34.5751L17.0071 27.504Z" fill="#FF9300"/>
<path d="M19.5031 33.12L19.9831 28.752L12.912 35.8231L12.432 40.1911L19.5031 33.12Z" fill="#FF9300"/>
<path d="M7.55107 33.12H19.5031L12.432 40.1911H0.480003L7.55107 33.12Z" fill="#FF9300"/>
<path d="M9.27907 27.504L7.07107 28.848L0 35.9191L2.208 34.5751L9.27907 27.504Z" fill="#FF9300"/>
<path d="M7.07107 28.848L7.55107 33.12L0.48 40.1911L0 35.9191L7.07107 28.848Z" fill="#FF9300"/>
<path d="M17.3911 11.904L16.3351 26.112V26.304C16.3351 26.912 16.5591 27.312 17.0071 27.504L19.9831 28.752L19.5031 33.12H7.55107L7.07107 28.848L9.27907 27.504L12.0151 8.97599C12.0471 8.75199 12.0631 8.47999 12.0631 8.15999C12.0631 7.77599 11.9671 7.48799 11.7751 7.29599C11.6151 7.10399 11.2951 6.86399 10.8151 6.57599L8.60707 5.32799L8.89507 0.767994H22.6711L29.5351 23.136L36.3511 0.767994H49.2151L49.4071 5.80799L46.3351 6.57599L48.9271 25.392C49.0231 26.032 49.1511 26.528 49.3111 26.88C49.5031 27.232 49.9191 27.808 50.5591 28.608L51.5671 29.904L51.2791 33.12H36.9751L36.5431 28.704L40.4791 27.696L38.8471 11.616L32.7031 33.312L24.4951 34.032L17.3911 11.904ZM53.3869 28.848L54.8749 27.936L66.1069 0.719995L74.2669 -7.62939e-06L83.8669 25.92C84.1869 26.752 84.4109 27.296 84.5389 27.552C84.6669 27.808 84.9069 28.16 85.2589 28.608L86.1229 29.712L85.8349 33.12H72.3469L71.8669 28.56L75.2749 27.696L73.7389 22.848L63.9949 22.992L62.9389 26.016C62.8429 26.304 62.7949 26.544 62.7949 26.736C62.7949 26.96 62.8269 27.136 62.8909 27.264C62.9869 27.36 63.1309 27.44 63.3229 27.504L66.6349 28.896L66.1549 33.12H53.5789L53.3869 28.848ZM69.0829 8.20799L65.9149 17.424L72.1069 17.712L69.0829 8.20799ZM88.0981 28.224L91.6021 27.264V8.97599C91.6021 8.14399 91.5381 7.59999 91.4101 7.344C91.2821 7.05599 90.9461 6.79999 90.4021 6.57599L87.9061 5.18399L88.1941 1.29599C90.6261 0.911994 92.9301 0.639995 95.1061 0.479995C97.2821 0.287993 99.6181 0.191993 102.114 0.191993C105.57 0.191993 108.338 0.559993 110.418 1.29599C112.53 2.03199 114.066 3.18399 115.026 4.75199C116.018 6.31999 116.514 8.39999 116.514 10.992C116.514 14.352 115.298 16.992 112.866 18.912C110.466 20.832 107.17 21.792 102.978 21.792L100.338 21.696V25.344C100.338 26.112 100.386 26.608 100.482 26.832C100.61 27.056 100.898 27.28 101.346 27.504L104.274 29.232L104.082 33.12H88.3381L88.0981 28.224ZM103.41 16.464C105.138 16.464 106.402 16.288 107.202 15.936C107.554 14.368 107.73 12.72 107.73 10.992C107.73 9.10399 107.362 7.75999 106.626 6.95999C105.922 6.15999 104.77 5.75999 103.17 5.75999C102.626 5.75999 101.682 5.82399 100.338 5.95199V16.176C101.202 16.368 102.226 16.464 103.41 16.464ZM118.696 28.08L121.72 27.264V8.88C121.72 8.04799 121.656 7.50399 121.528 7.24799C121.432 6.95999 121.128 6.70399 120.616 6.47999L118.6 5.32799L118.744 0.767994H133.72L133.96 5.66399L130.408 6.62399V27.36L136.456 27.216L140.536 22.56L144.232 22.752C144.168 25.44 143.944 28.896 143.56 33.12H118.936L118.696 28.08ZM146.727 28.224L150.231 27.264V8.88C150.231 8.04799 150.167 7.50399 150.039 7.24799C149.911 6.95999 149.575 6.70399 149.031 6.47999L146.631 5.08799L146.775 0.767994H172.839C173.063 4.12799 173.175 7.40799 173.175 10.608L169.623 10.848L166.215 6.62399L158.967 6.43199V14.256L169.191 13.392V20.784L158.967 19.68V27.408L166.935 27.264L170.631 23.04L174.183 23.28C174.055 26.64 173.815 29.92 173.463 33.12H146.967L146.727 28.224Z" fill="url(#paint0_linear_0_1)"/>
<defs>
<linearGradient id="paint0_linear_0_1" x1="90.8924" y1="-14.88" x2="90.8924" y2="72.12" gradientUnits="userSpaceOnUse">
<stop stop-color="#F98213"/>
<stop offset="1" stop-color="#F42500"/>
</linearGradient>
</defs>
</svg>
